<?xml version="1.0" standalone="no"?>
<!DOCTYPE svg PUBLIC "-//W3C//DTD SVG 20010904//EN"
 "http://www.w3.org/TR/2001/REC-SVG-20010904/DTD/svg10.dtd">
<svg version="1.0" xmlns="http://www.w3.org/2000/svg"
 width="260.000000pt" height="260.000000pt" viewBox="0 0 260.000000 260.000000"
 preserveAspectRatio="xMidYMid meet">
<metadata>
Created by potrace 1.14, written by Peter Selinger 2001-2017
</metadata>
<g transform="translate(0.000000,260.000000) scale(0.100000,-0.100000)"
fill="#000000" stroke="none">
<path d="M1290 1921 l0 -559 53 2 c28 0 54 4 57 8 3 3 5 202 4 441 l0 436 25
-19 c76 -54 229 -236 299 -355 68 -115 133 -294 147 -403 13 -104 15 -106 76
-106 30 0 53 4 52 9 0 6 -4 34 -8 64 -13 101 -88 345 -116 376 -5 5 -9 17 -9
27 0 10 -3 18 -8 18 -4 0 -13 15 -21 33 -8 17 -25 49 -38 69 -13 21 -23 42
-23 46 0 8 412 252 450 267 13 5 15 -50 15 -452 l0 -458 58 0 57 -1 0 558 c0
307 -2 558 -5 558 -3 0 -99 -55 -213 -121 -114 -67 -223 -130 -242 -141 -19
-11 -69 -40 -111 -64 l-76 -44 -119 118 c-103 103 -280 252 -298 252 -3 0 -6
-251 -6 -559z"/>
<path d="M279 2457 c0 -7 -2 -254 -2 -549 -1 -351 1 -539 8 -541 6 -2 208 -3
450 -3 l440 1 -2 30 c-2 17 -3 37 -4 45 -2 30 -51 205 -65 232 -8 16 -12 28
-9 28 8 0 -70 150 -111 215 -148 235 -416 453 -663 540 -31 11 -41 11 -42 2z
m206 -206 c192 -118 351 -291 458 -497 38 -75 101 -248 95 -266 -3 -8 -348
-13 -615 -9 l-33 1 0 410 c0 226 4 410 8 410 4 0 44 -22 87 -49z"/>
<path d="M250 570 l0 -400 58 0 58 0 -1 266 c0 146 3 270 6 275 8 14 91 -78
146 -163 60 -92 109 -212 125 -305 l12 -73 59 0 59 0 -5 47 c-11 104 -41 201
-100 321 -22 45 -38 84 -36 85 2 2 49 30 104 62 55 32 114 66 131 76 l30 18
-1 -292 c0 -161 1 -298 3 -304 3 -9 24 -13 61 -13 l57 0 0 400 c0 220 -3 400
-6 400 -3 0 -80 -44 -170 -97 -91 -53 -178 -104 -195 -113 -16 -8 -42 -24 -58
-34 l-27 -18 -63 63 c-93 95 -219 199 -241 199 -3 0 -6 -180 -6 -400z"/>
<path d="M1312 952 c-62 -17 -133 -76 -164 -136 -33 -62 -32 -175 2 -236 31
-56 72 -94 130 -123 85 -41 218 -20 284 46 l25 25 -45 37 c-41 33 -47 36 -62
22 -45 -39 -120 -42 -178 -7 -71 44 -82 164 -20 225 36 36 106 50 154 30 38
-17 53 -12 94 32 30 31 27 43 -17 65 -65 33 -133 40 -203 20z"/>
<path d="M1721 962 c-10 -3 -6 -42 15 -123 52 -207 202 -421 386 -552 61 -44
203 -117 227 -117 6 0 9 96 8 278 l-2 277 -167 1 -166 2 -4 -39 c-7 -72 -2
-75 106 -74 53 0 101 -2 107 -6 11 -6 16 -235 6 -246 -10 -9 -128 82 -175 134
-23 26 -58 69 -77 95 -35 47 -125 222 -125 242 0 8 79 11 250 11 l251 0 -3 60
-3 60 -312 0 c-172 0 -317 -1 -322 -3z"/>
<path d="M1145 281 c-3 -2 -5 -28 -5 -58 l0 -53 245 0 245 0 0 58 0 58 -240 0
c-133 0 -243 -2 -245 -5z"/>
</g>
</svg>
